<?xml version="1.0" encoding="utf-8"?>
<!-- Svg Vector Icons : http://www.onlinewebfonts.com/icon -->
<!DOCTYPE svg PUBLIC "-//W3C//DTD SVG 1.1//EN" "http://www.w3.org/Graphics/SVG/1.1/DTD/svg11.dtd">
<svg version="1.1" xmlns="http://www.w3.org/2000/svg" xmlns:xlink="http://www.w3.org/1999/xlink" x="0px" y="0px" viewBox="0 0 1000 1000" enable-background="new 0 0 1000 1000" xml:space="preserve">
<metadata> Svg Vector Icons : http://www.onlinewebfonts.com/icon </metadata>
<g><g transform="translate(0.000000,511.000000) scale(0.100000,-0.100000)"><path d="M5185,4985.6c-203.3-22.4-494.1-97.6-679.1-176.9c-467.6-199.3-782.8-559.1-910.9-1043c-28.5-109.8-34.6-278.5-40.7-1189.4l-8.1-1063.3h-630.3h-628.3V791.1V69.3h628.3h628.3L3532-2360.3L3521.8-4790l1116.2,4.1l1116.2,6.1l6.1,2425.6l4.1,2423.6h738h736l231.8,697.4c128.1,382.2,235.9,707.6,241.9,721.8c6.1,18.3-195.2,24.4-969.8,24.4h-978v597.8c0,668.9,16.3,778.7,144.4,933.2c122,148.4,107.8,144.4,923.1,156.6l731.9,10.2l6.1,900.7l4.1,898.7l-1112.2-2C5847.8,5005.9,5274.4,4995.8,5185,4985.6z"/></g></g>
</svg>