<?xml version="1.0" encoding="utf-8"?>
<!-- Svg Vector Icons : http://www.onlinewebfonts.com/icon -->
<!DOCTYPE svg PUBLIC "-//W3C//DTD SVG 1.1//EN" "http://www.w3.org/Graphics/SVG/1.1/DTD/svg11.dtd">
<svg version="1.1" xmlns="http://www.w3.org/2000/svg" xmlns:xlink="http://www.w3.org/1999/xlink" x="0px" y="0px" viewBox="0 0 1000 1000" enable-background="new 0 0 1000 1000" xml:space="preserve">
<metadata> Svg Vector Icons : http://www.onlinewebfonts.com/icon </metadata>
<g><g><path d="M509.9,429.8h462.6c5.1,28.5,7.7,55.7,7.7,81.7c0,92.3-19.4,174.7-58.1,247.2c-38.7,72.5-93.9,129.2-165.6,170S602.6,990,509.9,990c-66.8,0-130.4-12.9-190.8-38.6c-60.4-25.7-112.5-60.5-156.3-104.3C119,803.3,84.2,751.2,58.5,690.8c-25.7-60.4-38.6-124-38.6-190.8s12.9-130.4,38.6-190.8c25.7-60.4,60.5-112.5,104.3-156.3c43.8-43.8,95.9-78.6,156.3-104.3C379.5,22.9,443.1,10,509.9,10C637.5,10,747,52.7,838.5,138.2L705.1,266.5c-52.3-50.6-117.4-75.9-195.2-75.9c-54.9,0-105.6,13.8-152.2,41.5c-46.6,27.6-83.5,65.2-110.7,112.6c-27.2,47.4-40.8,99.2-40.8,155.4s13.6,107.9,40.8,155.4s64.1,85,110.7,112.6c46.6,27.6,97.3,41.5,152.2,41.5c37,0,71-5.1,102.1-15.3c31.1-10.2,56.6-23,76.6-38.3s37.4-32.8,52.3-52.3c14.9-19.6,25.8-38.1,32.9-55.5c7-17.4,11.8-34,14.4-49.8H509.9V429.8L509.9,429.8z"/></g></g>
</svg>