<?xml version="1.0" encoding="utf-8"?>
<!-- Svg Vector Icons : http://www.onlinewebfonts.com/icon -->
<!DOCTYPE svg PUBLIC "-//W3C//DTD SVG 1.1//EN" "http://www.w3.org/Graphics/SVG/1.1/DTD/svg11.dtd">
<svg version="1.1" xmlns="http://www.w3.org/2000/svg" xmlns:xlink="http://www.w3.org/1999/xlink" x="0px" y="0px" viewBox="0 0 1000 1000" enable-background="new 0 0 1000 1000" xml:space="preserve">
<metadata> Svg Vector Icons : http://www.onlinewebfonts.com/icon </metadata>
<g><g transform="translate(0.000000,512.000000) scale(0.100000,-0.100000)"><path d="M1739.7,4999.3c-437.2-74.8-786.3-258.9-1095.1-579.2c-262.7-272.3-433.4-588.8-510.1-947.4C101.9,3321.2,100,3133.3,100,118.5c0-3020.5,1.9-3202.7,34.5-3356.1C268.8-3860.8,729-4407.4,1321.6-4647.1c356.7-143.8,111.2-134.2,3678.3-134.2c3020.5,0,3202.7,1.9,3356.1,34.5c623.3,134.2,1169.8,594.5,1409.6,1187.1c143.8,356.7,134.2,111.2,134.2,3678.3c0,3014.8-1.9,3202.7-34.5,3354.2c-76.7,358.6-247.4,675.1-510.1,947.4c-193.7,201.4-420,356.7-661.6,456.4c-370.1,151.5-80.5,140-3636.1,143.8C2541.3,5024.2,1852.9,5018.5,1739.7,4999.3z M8310,4592.7c397-107.4,721.1-333.7,939.7-661.6c109.3-163,172.6-306.8,224.4-512.1l42.2-164.9V118.5V-3017l-42.2-164.9c-76.7-301.1-212.9-542.7-421.9-751.8c-209-209-450.7-345.2-751.8-421.9l-164.9-42.2H4999.9H1864.4l-164.9,42.2c-301.1,76.7-542.7,212.9-751.8,421.9c-209,209-345.2,450.7-421.9,751.8L483.6-3017V118.5v3135.6l42.2,164.9c76.7,301.1,212.9,542.7,421.9,751.8c262.7,264.6,586.8,416.2,964.6,454.5c78.6,7.7,1515,13.4,3193.1,11.5l3049.3-3.8L8310,4592.7z"/><path d="M7888.1,4019.3c-63.3-19.2-122.7-59.4-186-122.7c-138.1-138.1-155.4-218.6-147.7-686.6c5.8-427.7,19.2-469.9,164.9-602.2c134.3-122.7,193.7-134.2,646.3-126.6c444.9,5.8,489,17.3,613.7,140c126.6,128.5,134.2,163,134.2,642.5c0,406.6-1.9,435.3-42.2,510.1c-59.5,113.2-178.4,211-295.3,245.5C8638,4061.5,8024.3,4059.6,7888.1,4019.3z M8703.2,3614.7c19.2-23,28.8-111.2,32.6-327.9c7.7-318.4-7.7-395.1-78.6-414.3c-23-5.7-172.6-11.5-329.9-11.5c-400.8,0-374-28.8-374,400.8c0,237.8,7.7,347.1,23,362.5c15.4,15.3,124.7,23,362.5,23C8630.3,3647.3,8680.2,3643.4,8703.2,3614.7z"/><path d="M4865.7,3058.5c-717.2-30.7-1423-341.4-1931.2-847.7l-136.2-138.1l-893.7,1.9h-891.8l-63.3-55.6l-63.3-55.6l-5.7-2427.9C874.8-3180,869-3040,1012.9-3329.6c155.3-318.4,487.1-573.4,832.3-646.3c115.1-24.9,575.3-28.8,3154.8-28.8c2579.4,0,3039.7,3.8,3154.8,28.8c345.2,72.9,677,327.9,832.3,646.3c141.9,285.7,136.2,149.6,136.2,2828.7c0,1501.6-7.7,2416.4-19.2,2445.2c-9.6,24.9-30.7,61.4-47.9,82.5c-28.8,36.4-55.6,38.4-943.5,44.1l-912.9,5.8l-136.2,134.2C6490.1,2784.3,5686.5,3093,4865.7,3058.5z M5364.3,2640.4c849.6-128.5,1568.7-661.6,1937-1434.5c464.1-972.3,264.6-2121.1-502.5-2886.3c-999.2-999.2-2598.6-999.2-3597.7,0c-767.1,765.2-966.6,1913.9-502.5,2886.3C3180,2216.6,4275,2807.3,5364.3,2640.4z M2401.3,1495.5c-235.9-450.7-337.5-863-337.5-1377c0-801.6,293.4-1515.1,857.3-2078.9c563.8-563.8,1277.2-857.2,2078.9-857.2c801.6,0,1515,293.4,2078.9,857.2c563.8,563.8,857.2,1277.3,857.2,2078.9c0,514-101.6,926.3-337.5,1377L7495,1691.1h621.4h623.3V-527.8c-1.9-1221.6-9.6-2278.3-17.3-2349.3c-49.9-375.9-351-677-726.8-726.8c-168.8-21.1-5822.4-21.1-5991.2,0c-375.9,49.9-677,351-726.8,726.8c-7.7,71-15.3,1127.6-17.3,2349.3v2218.9h623.3h621.4L2401.3,1495.5z"/><path d="M4789,2264.5c-1177.5-113.1-2046.3-1164.1-1935-2341.6c44.1-456.4,216.7-868.7,510.1-1210.1c452.6-527.4,1139.2-805.5,1831.5-740.3c567.7,53.7,1075.9,314.5,1440.3,740.3c379.7,443,563.8,1022.2,510.1,1603.3c-23,234-53.7,366.3-141.9,598.3c-243.6,634.8-813.2,1131.5-1495.9,1302.2c-95.9,24.9-514,74.8-546.6,67.1C4955.8,2281.8,4879.1,2274.1,4789,2264.5z M5450.6,1827.3c602.2-163,1097-659.7,1260-1267.6c63.3-234,63.3-648.2,0-882.2C6545.7-934.3,6052.8-1427.2,5441-1592.1c-234-63.3-648.2-63.3-882.2,0c-611.8,164.9-1104.6,657.8-1269.6,1269.6c-63.3,234-63.3,648.2,0,882.2C3465.7,1217.4,3996.9,1714.1,4672,1856C4856.1,1894.4,5255,1879.1,5450.6,1827.3z"/></g></g>
</svg>